<mxfile host="app.diagrams.net" modified="2024-01-30T09:43:09.733Z" agent="Mozilla/5.0 (Windows NT 10.0; Win64; x64) AppleWebKit/537.36 (KHTML, like Gecko) Chrome/120.0.0.0 Safari/537.36" etag="AkD7XIj0nxp1osIk2rY6" version="23.0.1" type="google">
  <diagram name="페이지-1" id="aEvHvg_GISMhGPSxpiuL">
    <mxGraphModel grid="1" page="1" gridSize="10" guides="1" tooltips="1" connect="1" arrows="1" fold="1" pageScale="1" pageWidth="1169" pageHeight="827" math="0" shadow="0">
      <root>
        <mxCell id="0" />
        <mxCell id="1" parent="0" />
        <mxCell id="p-SeOTfBANqaArWjte3t-23" value="" style="endArrow=classic;html=1;rounded=0;exitX=0.5;exitY=1;exitDx=0;exitDy=0;" edge="1" parent="1" source="_phgmdVUzbOF5s8IBjNN-1">
          <mxGeometry width="50" height="50" relative="1" as="geometry">
            <mxPoint x="260" y="150" as="sourcePoint" />
            <mxPoint x="259" y="1720" as="targetPoint" />
          </mxGeometry>
        </mxCell>
        <mxCell id="wB_7CRHb40THPqK0Hq_M-56" value="" style="endArrow=classic;html=1;rounded=0;endFill=1;exitX=0.5;exitY=1;exitDx=0;exitDy=0;" edge="1" parent="1" source="wB_7CRHb40THPqK0Hq_M-5">
          <mxGeometry width="50" height="50" relative="1" as="geometry">
            <mxPoint x="904.2944444444436" y="280" as="sourcePoint" />
            <mxPoint x="906" y="1720" as="targetPoint" />
          </mxGeometry>
        </mxCell>
        <mxCell id="wB_7CRHb40THPqK0Hq_M-1" value="&lt;font style=&quot;font-size: 18px;&quot;&gt;Env&lt;/font&gt;" style="ellipse;whiteSpace=wrap;html=1;" vertex="1" parent="1">
          <mxGeometry x="45" y="70" width="120" height="80" as="geometry" />
        </mxCell>
        <mxCell id="wB_7CRHb40THPqK0Hq_M-2" value="&lt;font style=&quot;font-size: 18px;&quot;&gt;DM&lt;/font&gt;" style="rounded=0;whiteSpace=wrap;html=1;" vertex="1" parent="1">
          <mxGeometry x="362" y="80" width="120" height="60" as="geometry" />
        </mxCell>
        <mxCell id="wB_7CRHb40THPqK0Hq_M-3" value="&lt;font style=&quot;font-size: 18px;&quot;&gt;MPM&lt;/font&gt;" style="rounded=0;whiteSpace=wrap;html=1;" vertex="1" parent="1">
          <mxGeometry x="522" y="80" width="120" height="60" as="geometry" />
        </mxCell>
        <mxCell id="wB_7CRHb40THPqK0Hq_M-4" value="&lt;font style=&quot;font-size: 18px;&quot;&gt;AM&lt;/font&gt;" style="rounded=0;whiteSpace=wrap;html=1;" vertex="1" parent="1">
          <mxGeometry x="682" y="80" width="120" height="60" as="geometry" />
        </mxCell>
        <mxCell id="wB_7CRHb40THPqK0Hq_M-5" value="&lt;font style=&quot;font-size: 18px;&quot;&gt;TM&lt;/font&gt;" style="rounded=0;whiteSpace=wrap;html=1;" vertex="1" parent="1">
          <mxGeometry x="842" y="80" width="120" height="60" as="geometry" />
        </mxCell>
        <mxCell id="wB_7CRHb40THPqK0Hq_M-6" value="&lt;font style=&quot;font-size: 18px;&quot;&gt;UIM&lt;/font&gt;" style="rounded=0;whiteSpace=wrap;html=1;" vertex="1" parent="1">
          <mxGeometry x="1002" y="80" width="120" height="60" as="geometry" />
        </mxCell>
        <mxCell id="wB_7CRHb40THPqK0Hq_M-10" value="&lt;font style=&quot;font-size: 18px;&quot;&gt;User&lt;/font&gt;" style="ellipse;whiteSpace=wrap;html=1;" vertex="1" parent="1">
          <mxGeometry x="1162" y="70" width="120" height="80" as="geometry" />
        </mxCell>
        <mxCell id="wB_7CRHb40THPqK0Hq_M-11" value="" style="endArrow=classic;html=1;rounded=0;exitX=0.5;exitY=1;exitDx=0;exitDy=0;" edge="1" parent="1" source="wB_7CRHb40THPqK0Hq_M-1">
          <mxGeometry width="50" height="50" relative="1" as="geometry">
            <mxPoint x="104.94000000000003" y="140" as="sourcePoint" />
            <mxPoint x="103" y="1720" as="targetPoint" />
          </mxGeometry>
        </mxCell>
        <mxCell id="wB_7CRHb40THPqK0Hq_M-12" value="" style="endArrow=classic;html=1;rounded=0;exitX=0.5;exitY=1;exitDx=0;exitDy=0;" edge="1" parent="1" source="wB_7CRHb40THPqK0Hq_M-2">
          <mxGeometry width="50" height="50" relative="1" as="geometry">
            <mxPoint x="421.94000000000005" y="400" as="sourcePoint" />
            <mxPoint x="419" y="1720" as="targetPoint" />
          </mxGeometry>
        </mxCell>
        <mxCell id="wB_7CRHb40THPqK0Hq_M-13" value="" style="endArrow=classic;html=1;rounded=0;exitX=0.5;exitY=1;exitDx=0;exitDy=0;" edge="1" parent="1" source="wB_7CRHb40THPqK0Hq_M-3">
          <mxGeometry width="50" height="50" relative="1" as="geometry">
            <mxPoint x="581.94" y="280" as="sourcePoint" />
            <mxPoint x="579" y="1720" as="targetPoint" />
          </mxGeometry>
        </mxCell>
        <mxCell id="wB_7CRHb40THPqK0Hq_M-14" value="" style="endArrow=classic;html=1;rounded=0;" edge="1" parent="1">
          <mxGeometry width="50" height="50" relative="1" as="geometry">
            <mxPoint x="741.94" y="140" as="sourcePoint" />
            <mxPoint x="739" y="1720" as="targetPoint" />
          </mxGeometry>
        </mxCell>
        <mxCell id="wB_7CRHb40THPqK0Hq_M-16" value="" style="endArrow=classic;html=1;rounded=0;" edge="1" parent="1">
          <mxGeometry width="50" height="50" relative="1" as="geometry">
            <mxPoint x="1061.94" y="140" as="sourcePoint" />
            <mxPoint x="1059" y="1720" as="targetPoint" />
          </mxGeometry>
        </mxCell>
        <mxCell id="wB_7CRHb40THPqK0Hq_M-17" value="" style="endArrow=classic;html=1;rounded=0;" edge="1" parent="1">
          <mxGeometry width="50" height="50" relative="1" as="geometry">
            <mxPoint x="1221" y="150" as="sourcePoint" />
            <mxPoint x="1218" y="1720" as="targetPoint" />
          </mxGeometry>
        </mxCell>
        <mxCell id="wB_7CRHb40THPqK0Hq_M-18" value="" style="endArrow=open;html=1;rounded=0;endFill=0;" edge="1" parent="1">
          <mxGeometry width="50" height="50" relative="1" as="geometry">
            <mxPoint x="104" y="177.89999999999986" as="sourcePoint" />
            <mxPoint x="420" y="178" as="targetPoint" />
          </mxGeometry>
        </mxCell>
        <mxCell id="p-SeOTfBANqaArWjte3t-18" value="RGB 영상&lt;br style=&quot;border-color: var(--border-color); font-size: 11px; background-color: rgb(251, 251, 251);&quot;&gt;&lt;span style=&quot;font-size: 11px; background-color: rgb(251, 251, 251);&quot;&gt;(publish)&lt;/span&gt;" style="edgeLabel;html=1;align=center;verticalAlign=middle;resizable=0;points=[];fontSize=11;" connectable="0" vertex="1" parent="wB_7CRHb40THPqK0Hq_M-18">
          <mxGeometry relative="1" as="geometry">
            <mxPoint as="offset" />
          </mxGeometry>
        </mxCell>
        <mxCell id="wB_7CRHb40THPqK0Hq_M-27" value="" style="rounded=0;whiteSpace=wrap;html=1;fontSize=11;" vertex="1" parent="1">
          <mxGeometry x="416" y="210" width="12.5" height="35" as="geometry" />
        </mxCell>
        <mxCell id="wB_7CRHb40THPqK0Hq_M-28" value="" style="rounded=0;whiteSpace=wrap;html=1;fontSize=11;" vertex="1" parent="1">
          <mxGeometry x="415" y="277" width="14" height="35" as="geometry" />
        </mxCell>
        <mxCell id="wB_7CRHb40THPqK0Hq_M-29" value="" style="endArrow=classic;html=1;rounded=0;exitX=1.006;exitY=0.101;exitDx=0;exitDy=0;exitPerimeter=0;endFill=1;entryX=1;entryY=0;entryDx=0;entryDy=0;fontSize=11;" edge="1" parent="1" target="wB_7CRHb40THPqK0Hq_M-28">
          <mxGeometry width="50" height="50" relative="1" as="geometry">
            <mxPoint x="421.5" y="257" as="sourcePoint" />
            <mxPoint x="427.5" y="301" as="targetPoint" />
            <Array as="points">
              <mxPoint x="439" y="257" />
              <mxPoint x="458.5" y="257" />
              <mxPoint x="459" y="277" />
            </Array>
          </mxGeometry>
        </mxCell>
        <mxCell id="-mwOYXHOvQSYumTdgK_D-17" value="&lt;font style=&quot;font-size: 11px;&quot;&gt;침입자 중복 여부 판단&lt;span style=&quot;background-color: rgb(251, 251, 251); font-size: 11px;&quot;&gt;&lt;br style=&quot;font-size: 11px;&quot;&gt;&lt;/span&gt;&lt;/font&gt;" style="edgeLabel;html=1;align=left;verticalAlign=middle;resizable=0;points=[];fontSize=11;" connectable="0" vertex="1" parent="wB_7CRHb40THPqK0Hq_M-29">
          <mxGeometry x="0.0574" relative="1" as="geometry">
            <mxPoint x="5" y="1" as="offset" />
          </mxGeometry>
        </mxCell>
        <mxCell id="wB_7CRHb40THPqK0Hq_M-31" value="&lt;font style=&quot;font-size: 14px;&quot;&gt;opt&lt;/font&gt;" style="shape=umlFrame;whiteSpace=wrap;html=1;pointerEvents=0;" vertex="1" parent="1">
          <mxGeometry x="60" y="323" width="1210" height="977" as="geometry" />
        </mxCell>
        <mxCell id="wB_7CRHb40THPqK0Hq_M-36" value="" style="endArrow=open;html=1;rounded=0;endFill=0;entryX=0.011;entryY=0.335;entryDx=0;entryDy=0;entryPerimeter=0;fontSize=11;" edge="1" parent="1">
          <mxGeometry width="50" height="50" relative="1" as="geometry">
            <mxPoint x="422" y="1153" as="sourcePoint" />
            <mxPoint x="903" y="1153.4" as="targetPoint" />
          </mxGeometry>
        </mxCell>
        <mxCell id="pUPubofuGg-XJAz9iOet-4" value="&lt;font style=&quot;font-size: 11px;&quot;&gt;로봇 위치 정보&amp;nbsp;및&lt;br style=&quot;border-color: var(--border-color); font-size: 11px;&quot;&gt;신규 침입자 위치 정보 전송&lt;br&gt;(publish)&lt;br style=&quot;font-size: 11px;&quot;&gt;&lt;/font&gt;" style="edgeLabel;html=1;align=center;verticalAlign=middle;resizable=0;points=[];fontSize=11;" connectable="0" vertex="1" parent="wB_7CRHb40THPqK0Hq_M-36">
          <mxGeometry relative="1" as="geometry">
            <mxPoint as="offset" />
          </mxGeometry>
        </mxCell>
        <mxCell id="wB_7CRHb40THPqK0Hq_M-84" value="" style="endArrow=classic;html=1;rounded=0;exitX=1.006;exitY=0.101;exitDx=0;exitDy=0;exitPerimeter=0;endFill=1;entryX=0.981;entryY=0.837;entryDx=0;entryDy=0;entryPerimeter=0;fontSize=11;" edge="1" parent="1">
          <mxGeometry width="50" height="50" relative="1" as="geometry">
            <mxPoint x="909.26" y="1670" as="sourcePoint" />
            <mxPoint x="907.0035" y="1690.11" as="targetPoint" />
            <Array as="points">
              <mxPoint x="946.26" y="1670" />
              <mxPoint x="946.51" y="1690" />
              <mxPoint x="934.51" y="1690" />
            </Array>
          </mxGeometry>
        </mxCell>
        <mxCell id="wB_7CRHb40THPqK0Hq_M-85" value="&lt;span style=&quot;font-size: 11px;&quot;&gt;전향/복귀 순찰 &lt;br style=&quot;font-size: 11px;&quot;&gt;모드 전환&lt;/span&gt;" style="text;html=1;strokeColor=none;fillColor=none;align=center;verticalAlign=middle;whiteSpace=wrap;rounded=0;fontSize=11;" vertex="1" parent="1">
          <mxGeometry x="953.76" y="1665" width="99.25" height="30" as="geometry" />
        </mxCell>
        <mxCell id="pUPubofuGg-XJAz9iOet-16" value="" style="rounded=0;whiteSpace=wrap;html=1;fontSize=11;" vertex="1" parent="1">
          <mxGeometry x="410" y="990" width="19" height="35" as="geometry" />
        </mxCell>
        <mxCell id="pUPubofuGg-XJAz9iOet-17" value="" style="endArrow=classic;html=1;rounded=0;exitX=1.006;exitY=0.101;exitDx=0;exitDy=0;exitPerimeter=0;endFill=1;entryX=1;entryY=0;entryDx=0;entryDy=0;fontSize=11;" edge="1" parent="1" target="pUPubofuGg-XJAz9iOet-16">
          <mxGeometry width="50" height="50" relative="1" as="geometry">
            <mxPoint x="421.5" y="970" as="sourcePoint" />
            <mxPoint x="427.5" y="1014" as="targetPoint" />
            <Array as="points">
              <mxPoint x="439" y="970" />
              <mxPoint x="458.5" y="970" />
              <mxPoint x="459" y="990" />
            </Array>
          </mxGeometry>
        </mxCell>
        <mxCell id="-mwOYXHOvQSYumTdgK_D-16" value="&lt;div style=&quot;border-color: var(--border-color); background-color: rgb(251, 251, 251); font-size: 11px;&quot;&gt;&lt;font style=&quot;font-size: 11px;&quot;&gt;신규 침입자의 위치 계산&amp;nbsp;&lt;br&gt;&lt;/font&gt;&lt;/div&gt;&lt;font style=&quot;border-color: var(--border-color); text-align: left; background-color: rgb(251, 251, 251); font-size: 11px;&quot;&gt;및 탐지 색상 저장&amp;nbsp;&lt;/font&gt;" style="edgeLabel;html=1;align=center;verticalAlign=middle;resizable=0;points=[];fontSize=11;" connectable="0" vertex="1" parent="pUPubofuGg-XJAz9iOet-17">
          <mxGeometry x="-0.3114" y="-1" relative="1" as="geometry">
            <mxPoint x="72" y="10" as="offset" />
          </mxGeometry>
        </mxCell>
        <mxCell id="pUPubofuGg-XJAz9iOet-44" value="&lt;font style=&quot;font-size: 14px;&quot;&gt;loop&lt;/font&gt;" style="shape=umlFrame;whiteSpace=wrap;html=1;pointerEvents=0;" vertex="1" parent="1">
          <mxGeometry x="60" y="1316" width="910" height="244" as="geometry" />
        </mxCell>
        <mxCell id="pUPubofuGg-XJAz9iOet-48" value="&lt;font style=&quot;font-size: 14px;&quot;&gt;[current_node != goal_node]&lt;/font&gt;" style="text;html=1;strokeColor=none;fillColor=none;align=center;verticalAlign=middle;whiteSpace=wrap;rounded=0;fontSize=14;" vertex="1" parent="1">
          <mxGeometry x="130" y="1324" width="180" height="30" as="geometry" />
        </mxCell>
        <mxCell id="pUPubofuGg-XJAz9iOet-66" value="" style="rounded=0;whiteSpace=wrap;html=1;fontSize=11;" vertex="1" parent="1">
          <mxGeometry x="899" y="1624" width="13.5" height="30" as="geometry" />
        </mxCell>
        <mxCell id="pUPubofuGg-XJAz9iOet-67" value="" style="endArrow=classic;html=1;rounded=0;exitX=1.006;exitY=0.101;exitDx=0;exitDy=0;exitPerimeter=0;endFill=1;entryX=0.981;entryY=0.837;entryDx=0;entryDy=0;entryPerimeter=0;fontSize=11;" edge="1" parent="1">
          <mxGeometry width="50" height="50" relative="1" as="geometry">
            <mxPoint x="912.5" y="1629" as="sourcePoint" />
            <mxPoint x="910.2435" y="1649.11" as="targetPoint" />
            <Array as="points">
              <mxPoint x="949.5" y="1629" />
              <mxPoint x="949.75" y="1649" />
              <mxPoint x="937.75" y="1649" />
            </Array>
          </mxGeometry>
        </mxCell>
        <mxCell id="pUPubofuGg-XJAz9iOet-68" value="&lt;font style=&quot;font-size: 11px;&quot;&gt;다음 목표 노드 &lt;br style=&quot;font-size: 11px;&quot;&gt;설정&lt;/font&gt;" style="text;html=1;strokeColor=none;fillColor=none;align=center;verticalAlign=middle;whiteSpace=wrap;rounded=0;fontSize=11;" vertex="1" parent="1">
          <mxGeometry x="952.75" y="1624" width="99.25" height="30" as="geometry" />
        </mxCell>
        <mxCell id="-mwOYXHOvQSYumTdgK_D-18" value="" style="endArrow=open;html=1;rounded=0;endFill=0;fontSize=11;" edge="1" parent="1">
          <mxGeometry width="50" height="50" relative="1" as="geometry">
            <mxPoint x="580" y="913" as="sourcePoint" />
            <mxPoint x="421" y="913" as="targetPoint" />
          </mxGeometry>
        </mxCell>
        <mxCell id="p-SeOTfBANqaArWjte3t-21" value="로봇 논리적 포즈값 발행&lt;br style=&quot;border-color: var(--border-color); font-size: 11px;&quot;&gt;&lt;span style=&quot;font-size: 11px;&quot;&gt;(publish)&lt;/span&gt;" style="edgeLabel;html=1;align=center;verticalAlign=middle;resizable=0;points=[];fontSize=11;" connectable="0" vertex="1" parent="-mwOYXHOvQSYumTdgK_D-18">
          <mxGeometry relative="1" as="geometry">
            <mxPoint as="offset" />
          </mxGeometry>
        </mxCell>
        <mxCell id="-mwOYXHOvQSYumTdgK_D-24" value="" style="endArrow=open;html=1;rounded=0;endFill=0;fontSize=11;" edge="1" parent="1">
          <mxGeometry width="50" height="50" relative="1" as="geometry">
            <mxPoint x="1062" y="1272.0473684210524" as="sourcePoint" />
            <mxPoint x="1220" y="1272.464035087719" as="targetPoint" />
          </mxGeometry>
        </mxCell>
        <mxCell id="-mwOYXHOvQSYumTdgK_D-25" value="신규 침입자 탐지 보고&amp;nbsp;&lt;br style=&quot;border-color: var(--border-color); font-size: 11px;&quot;&gt;(text/tts)" style="edgeLabel;html=1;align=center;verticalAlign=middle;resizable=0;points=[];fontSize=11;" connectable="0" vertex="1" parent="-mwOYXHOvQSYumTdgK_D-24">
          <mxGeometry relative="1" as="geometry">
            <mxPoint as="offset" />
          </mxGeometry>
        </mxCell>
        <mxCell id="-mwOYXHOvQSYumTdgK_D-26" value="" style="endArrow=open;html=1;rounded=0;endFill=0;fontSize=11;" edge="1" parent="1">
          <mxGeometry width="50" height="50" relative="1" as="geometry">
            <mxPoint x="906" y="1231.9973684210524" as="sourcePoint" />
            <mxPoint x="1061" y="1232.414035087719" as="targetPoint" />
          </mxGeometry>
        </mxCell>
        <mxCell id="-mwOYXHOvQSYumTdgK_D-27" value="로봇 위치 정보&amp;nbsp;및&lt;br style=&quot;border-color: var(--border-color); font-size: 11px;&quot;&gt;신규 침입자 정보 전송&lt;br&gt;(publish)" style="edgeLabel;html=1;align=center;verticalAlign=middle;resizable=0;points=[];fontSize=11;" connectable="0" vertex="1" parent="-mwOYXHOvQSYumTdgK_D-26">
          <mxGeometry relative="1" as="geometry">
            <mxPoint as="offset" />
          </mxGeometry>
        </mxCell>
        <mxCell id="-mwOYXHOvQSYumTdgK_D-28" value="&lt;font style=&quot;font-size: 14px;&quot;&gt;loop&lt;/font&gt;" style="shape=umlFrame;whiteSpace=wrap;html=1;pointerEvents=0;" vertex="1" parent="1">
          <mxGeometry x="80" y="367" width="930" height="283" as="geometry" />
        </mxCell>
        <mxCell id="-mwOYXHOvQSYumTdgK_D-44" value="[current_node != goal_node]" style="text;html=1;strokeColor=none;fillColor=none;align=center;verticalAlign=middle;whiteSpace=wrap;rounded=0;fontSize=14;" vertex="1" parent="1">
          <mxGeometry x="154" y="371" width="180" height="30" as="geometry" />
        </mxCell>
        <mxCell id="-mwOYXHOvQSYumTdgK_D-45" value="[novel_detection = True]" style="text;html=1;strokeColor=none;fillColor=none;align=center;verticalAlign=middle;whiteSpace=wrap;rounded=0;fontSize=14;" vertex="1" parent="1">
          <mxGeometry x="130" y="333" width="180" height="30" as="geometry" />
        </mxCell>
        <mxCell id="-mwOYXHOvQSYumTdgK_D-46" value="" style="rounded=0;whiteSpace=wrap;html=1;fontSize=11;" vertex="1" parent="1">
          <mxGeometry x="736" y="561.25" width="13.5" height="30" as="geometry" />
        </mxCell>
        <mxCell id="-mwOYXHOvQSYumTdgK_D-47" value="" style="endArrow=classic;html=1;rounded=0;exitX=1.006;exitY=0.101;exitDx=0;exitDy=0;exitPerimeter=0;endFill=1;entryX=0.981;entryY=0.837;entryDx=0;entryDy=0;entryPerimeter=0;fontSize=11;" edge="1" parent="1">
          <mxGeometry width="50" height="50" relative="1" as="geometry">
            <mxPoint x="749.5" y="566.25" as="sourcePoint" />
            <mxPoint x="747.2435" y="586.3599999999999" as="targetPoint" />
            <Array as="points">
              <mxPoint x="786.5" y="566.25" />
              <mxPoint x="786.75" y="586.25" />
              <mxPoint x="774.75" y="586.25" />
            </Array>
          </mxGeometry>
        </mxCell>
        <mxCell id="-mwOYXHOvQSYumTdgK_D-48" value="목표 노드까지의 &lt;br&gt;도착 여부 확인" style="text;html=1;strokeColor=none;fillColor=none;align=center;verticalAlign=middle;whiteSpace=wrap;rounded=0;fontSize=11;" vertex="1" parent="1">
          <mxGeometry x="789.75" y="561.25" width="99.25" height="30" as="geometry" />
        </mxCell>
        <mxCell id="m02Xo0arh1XbP19MChcq-2" value="" style="endArrow=classic;html=1;rounded=0;exitX=1.006;exitY=0.101;exitDx=0;exitDy=0;exitPerimeter=0;endFill=1;entryX=1;entryY=0;entryDx=0;entryDy=0;fontSize=11;" edge="1" parent="1">
          <mxGeometry width="50" height="50" relative="1" as="geometry">
            <mxPoint x="421.5" y="190" as="sourcePoint" />
            <mxPoint x="429" y="210" as="targetPoint" />
            <Array as="points">
              <mxPoint x="439" y="190" />
              <mxPoint x="458.5" y="190" />
              <mxPoint x="459" y="210" />
            </Array>
          </mxGeometry>
        </mxCell>
        <mxCell id="m02Xo0arh1XbP19MChcq-3" value="&lt;font style=&quot;font-size: 11px;&quot;&gt;Grounding-DINO 탐지&lt;span style=&quot;background-color: rgb(251, 251, 251); font-size: 11px;&quot;&gt;&lt;br style=&quot;font-size: 11px;&quot;&gt;&lt;/span&gt;&lt;/font&gt;" style="edgeLabel;html=1;align=left;verticalAlign=middle;resizable=0;points=[];fontSize=11;" connectable="0" vertex="1" parent="m02Xo0arh1XbP19MChcq-2">
          <mxGeometry x="0.0574" relative="1" as="geometry">
            <mxPoint x="5" y="1" as="offset" />
          </mxGeometry>
        </mxCell>
        <mxCell id="m02Xo0arh1XbP19MChcq-4" value="" style="endArrow=open;html=1;rounded=0;endFill=0;fontSize=11;" edge="1" parent="1">
          <mxGeometry width="50" height="50" relative="1" as="geometry">
            <mxPoint x="108" y="880" as="sourcePoint" />
            <mxPoint x="580" y="880" as="targetPoint" />
          </mxGeometry>
        </mxCell>
        <mxCell id="m02Xo0arh1XbP19MChcq-5" value="로봇 tf 값 (translation, rotation)&lt;br style=&quot;border-color: var(--border-color); font-size: 11px;&quot;&gt;&lt;span style=&quot;font-size: 11px;&quot;&gt;(publish)&lt;/span&gt;" style="edgeLabel;html=1;align=center;verticalAlign=middle;resizable=0;points=[];fontSize=11;" connectable="0" vertex="1" parent="m02Xo0arh1XbP19MChcq-4">
          <mxGeometry relative="1" as="geometry">
            <mxPoint as="offset" />
          </mxGeometry>
        </mxCell>
        <mxCell id="m02Xo0arh1XbP19MChcq-20" value="" style="rounded=0;whiteSpace=wrap;html=1;fontSize=11;" vertex="1" parent="1">
          <mxGeometry x="900" y="1172" width="13.5" height="30" as="geometry" />
        </mxCell>
        <mxCell id="m02Xo0arh1XbP19MChcq-21" value="" style="endArrow=classic;html=1;rounded=0;exitX=1.006;exitY=0.101;exitDx=0;exitDy=0;exitPerimeter=0;endFill=1;entryX=0.981;entryY=0.837;entryDx=0;entryDy=0;entryPerimeter=0;fontSize=11;" edge="1" parent="1">
          <mxGeometry width="50" height="50" relative="1" as="geometry">
            <mxPoint x="913.5" y="1177" as="sourcePoint" />
            <mxPoint x="911.2435" y="1197.11" as="targetPoint" />
            <Array as="points">
              <mxPoint x="950.5" y="1177" />
              <mxPoint x="950.75" y="1197" />
              <mxPoint x="938.75" y="1197" />
            </Array>
          </mxGeometry>
        </mxCell>
        <mxCell id="m02Xo0arh1XbP19MChcq-22" value="침입자 수 갱신" style="text;html=1;strokeColor=none;fillColor=none;align=center;verticalAlign=middle;whiteSpace=wrap;rounded=0;fontSize=11;" vertex="1" parent="1">
          <mxGeometry x="946.75" y="1172" width="99.25" height="30" as="geometry" />
        </mxCell>
        <mxCell id="p-SeOTfBANqaArWjte3t-3" value="" style="endArrow=open;html=1;rounded=0;endFill=0;fontSize=11;" edge="1" parent="1">
          <mxGeometry width="50" height="50" relative="1" as="geometry">
            <mxPoint x="258" y="452.25" as="sourcePoint" />
            <mxPoint x="105.5" y="452.83333333333394" as="targetPoint" />
          </mxGeometry>
        </mxCell>
        <mxCell id="p-SeOTfBANqaArWjte3t-4" value="회전 속도값 발행" style="edgeLabel;html=1;align=center;verticalAlign=middle;resizable=0;points=[];fontSize=11;" connectable="0" vertex="1" parent="p-SeOTfBANqaArWjte3t-3">
          <mxGeometry relative="1" as="geometry">
            <mxPoint as="offset" />
          </mxGeometry>
        </mxCell>
        <mxCell id="p-SeOTfBANqaArWjte3t-5" value="" style="endArrow=open;html=1;rounded=0;endFill=0;fontSize=11;" edge="1" parent="1">
          <mxGeometry width="50" height="50" relative="1" as="geometry">
            <mxPoint x="258" y="479.9200000000005" as="sourcePoint" />
            <mxPoint x="106.5" y="479.503333333334" as="targetPoint" />
          </mxGeometry>
        </mxCell>
        <mxCell id="p-SeOTfBANqaArWjte3t-6" value="직진 속도값 발행" style="edgeLabel;html=1;align=center;verticalAlign=middle;resizable=0;points=[];fontSize=11;" connectable="0" vertex="1" parent="p-SeOTfBANqaArWjte3t-5">
          <mxGeometry relative="1" as="geometry">
            <mxPoint as="offset" />
          </mxGeometry>
        </mxCell>
        <mxCell id="p-SeOTfBANqaArWjte3t-7" value="" style="endArrow=open;html=1;rounded=0;endFill=0;dashed=1;fontSize=11;" edge="1" parent="1">
          <mxGeometry width="50" height="50" relative="1" as="geometry">
            <mxPoint x="742.5" y="622.2521985815606" as="sourcePoint" />
            <mxPoint x="892.5" y="622.6688652482271" as="targetPoint" />
          </mxGeometry>
        </mxCell>
        <mxCell id="p-SeOTfBANqaArWjte3t-8" value="&lt;p style=&quot;margin-top: 0pt; margin-bottom: 0pt; margin-left: 0in; direction: ltr; unicode-bidi: embed; font-size: 11px;&quot;&gt;작업 결과 보고&lt;/p&gt;&lt;p style=&quot;margin-top: 0pt; margin-bottom: 0pt; margin-left: 0in; direction: ltr; unicode-bidi: embed; font-size: 11px;&quot;&gt;(service response)&lt;/p&gt;" style="edgeLabel;html=1;align=center;verticalAlign=middle;resizable=0;points=[];fontSize=11;" connectable="0" vertex="1" parent="p-SeOTfBANqaArWjte3t-7">
          <mxGeometry relative="1" as="geometry">
            <mxPoint as="offset" />
          </mxGeometry>
        </mxCell>
        <mxCell id="p-SeOTfBANqaArWjte3t-9" value="" style="endArrow=open;html=1;rounded=0;exitX=0;exitY=0;exitDx=0;exitDy=5;exitPerimeter=0;endFill=0;fontSize=11;" edge="1" parent="1">
          <mxGeometry width="50" height="50" relative="1" as="geometry">
            <mxPoint x="891.5" y="408.5" as="sourcePoint" />
            <mxPoint x="743.5" y="408.5000000000001" as="targetPoint" />
          </mxGeometry>
        </mxCell>
        <mxCell id="p-SeOTfBANqaArWjte3t-10" value="전진/회전 작업 요청&lt;br style=&quot;font-size: 11px;&quot;&gt;(service request)" style="edgeLabel;html=1;align=center;verticalAlign=middle;resizable=0;points=[];fontSize=11;" connectable="0" vertex="1" parent="p-SeOTfBANqaArWjte3t-9">
          <mxGeometry relative="1" as="geometry">
            <mxPoint as="offset" />
          </mxGeometry>
        </mxCell>
        <mxCell id="p-SeOTfBANqaArWjte3t-11" value="" style="endArrow=open;html=1;rounded=0;exitX=0;exitY=0;exitDx=0;exitDy=5;exitPerimeter=0;endFill=0;fontSize=11;" edge="1" parent="1">
          <mxGeometry width="50" height="50" relative="1" as="geometry">
            <mxPoint x="739" y="429.5" as="sourcePoint" />
            <mxPoint x="260" y="429.5" as="targetPoint" />
          </mxGeometry>
        </mxCell>
        <mxCell id="p-SeOTfBANqaArWjte3t-24" value="&lt;font style=&quot;font-size: 11px;&quot;&gt;전진/회전 행동&lt;br style=&quot;border-color: var(--border-color); font-size: 11px;&quot;&gt;(action goal)&lt;/font&gt;" style="edgeLabel;html=1;align=center;verticalAlign=middle;resizable=0;points=[];fontSize=11;" connectable="0" vertex="1" parent="p-SeOTfBANqaArWjte3t-11">
          <mxGeometry relative="1" as="geometry">
            <mxPoint as="offset" />
          </mxGeometry>
        </mxCell>
        <mxCell id="p-SeOTfBANqaArWjte3t-13" value="" style="endArrow=open;html=1;rounded=0;exitX=0;exitY=0;exitDx=0;exitDy=5;exitPerimeter=0;endFill=0;dashed=1;fontSize=11;" edge="1" parent="1">
          <mxGeometry width="50" height="50" relative="1" as="geometry">
            <mxPoint x="260" y="539.5" as="sourcePoint" />
            <mxPoint x="739" y="539.5" as="targetPoint" />
          </mxGeometry>
        </mxCell>
        <mxCell id="p-SeOTfBANqaArWjte3t-14" value="주행 결과 보고&lt;br style=&quot;font-size: 11px;&quot;&gt;(action result)" style="edgeLabel;html=1;align=center;verticalAlign=middle;resizable=0;points=[];fontSize=11;" connectable="0" vertex="1" parent="p-SeOTfBANqaArWjte3t-13">
          <mxGeometry relative="1" as="geometry">
            <mxPoint as="offset" />
          </mxGeometry>
        </mxCell>
        <mxCell id="p-SeOTfBANqaArWjte3t-15" value="" style="endArrow=open;html=1;rounded=0;exitX=0;exitY=0;exitDx=0;exitDy=5;exitPerimeter=0;endFill=0;dashed=1;fontSize=11;" edge="1" parent="1">
          <mxGeometry width="50" height="50" relative="1" as="geometry">
            <mxPoint x="260" y="499.5" as="sourcePoint" />
            <mxPoint x="739" y="499.5" as="targetPoint" />
          </mxGeometry>
        </mxCell>
        <mxCell id="p-SeOTfBANqaArWjte3t-16" value="주행 피드백 보고&lt;br style=&quot;font-size: 11px;&quot;&gt;(action feedback)" style="edgeLabel;html=1;align=center;verticalAlign=middle;resizable=0;points=[];fontSize=11;" connectable="0" vertex="1" parent="p-SeOTfBANqaArWjte3t-15">
          <mxGeometry relative="1" as="geometry">
            <mxPoint as="offset" />
          </mxGeometry>
        </mxCell>
        <mxCell id="p-SeOTfBANqaArWjte3t-17" value="" style="rounded=0;whiteSpace=wrap;html=1;fontSize=11;" vertex="1" parent="1">
          <mxGeometry x="892.5" y="400" width="20" height="241.25" as="geometry" />
        </mxCell>
        <mxCell id="p-SeOTfBANqaArWjte3t-19" value="" style="endArrow=open;html=1;rounded=0;endFill=0;" edge="1" parent="1">
          <mxGeometry width="50" height="50" relative="1" as="geometry">
            <mxPoint x="104" y="939" as="sourcePoint" />
            <mxPoint x="420" y="939.0999999999999" as="targetPoint" />
          </mxGeometry>
        </mxCell>
        <mxCell id="p-SeOTfBANqaArWjte3t-20" value="Depth 영상&lt;br style=&quot;border-color: var(--border-color); font-size: 11px; background-color: rgb(251, 251, 251);&quot;&gt;&lt;span style=&quot;font-size: 11px; background-color: rgb(251, 251, 251);&quot;&gt;(publish)&lt;/span&gt;" style="edgeLabel;html=1;align=center;verticalAlign=middle;resizable=0;points=[];fontSize=11;" connectable="0" vertex="1" parent="p-SeOTfBANqaArWjte3t-19">
          <mxGeometry relative="1" as="geometry">
            <mxPoint as="offset" />
          </mxGeometry>
        </mxCell>
        <mxCell id="p-SeOTfBANqaArWjte3t-27" value="" style="endArrow=open;html=1;rounded=0;endFill=0;fontSize=11;" edge="1" parent="1">
          <mxGeometry width="50" height="50" relative="1" as="geometry">
            <mxPoint x="258" y="727" as="sourcePoint" />
            <mxPoint x="106" y="727.3333333333339" as="targetPoint" />
          </mxGeometry>
        </mxCell>
        <mxCell id="p-SeOTfBANqaArWjte3t-28" value="회전 속도값 발행" style="edgeLabel;html=1;align=center;verticalAlign=middle;resizable=0;points=[];fontSize=11;" connectable="0" vertex="1" parent="p-SeOTfBANqaArWjte3t-27">
          <mxGeometry relative="1" as="geometry">
            <mxPoint as="offset" />
          </mxGeometry>
        </mxCell>
        <mxCell id="p-SeOTfBANqaArWjte3t-29" value="" style="endArrow=open;html=1;rounded=0;endFill=0;fontSize=11;" edge="1" parent="1">
          <mxGeometry width="50" height="50" relative="1" as="geometry">
            <mxPoint x="258" y="754.4200000000005" as="sourcePoint" />
            <mxPoint x="106" y="754.003333333334" as="targetPoint" />
          </mxGeometry>
        </mxCell>
        <mxCell id="p-SeOTfBANqaArWjte3t-30" value="직진 속도값 발행" style="edgeLabel;html=1;align=center;verticalAlign=middle;resizable=0;points=[];fontSize=11;" connectable="0" vertex="1" parent="p-SeOTfBANqaArWjte3t-29">
          <mxGeometry relative="1" as="geometry">
            <mxPoint as="offset" />
          </mxGeometry>
        </mxCell>
        <mxCell id="p-SeOTfBANqaArWjte3t-31" value="" style="endArrow=open;html=1;rounded=0;endFill=0;dashed=1;fontSize=11;" edge="1" parent="1">
          <mxGeometry width="50" height="50" relative="1" as="geometry">
            <mxPoint x="742" y="844.0021985815606" as="sourcePoint" />
            <mxPoint x="892" y="844.4188652482271" as="targetPoint" />
          </mxGeometry>
        </mxCell>
        <mxCell id="p-SeOTfBANqaArWjte3t-32" value="&lt;p style=&quot;margin-top: 0pt; margin-bottom: 0pt; margin-left: 0in; direction: ltr; unicode-bidi: embed; font-size: 11px;&quot;&gt;작업 결과 보고&lt;/p&gt;&lt;p style=&quot;margin-top: 0pt; margin-bottom: 0pt; margin-left: 0in; direction: ltr; unicode-bidi: embed; font-size: 11px;&quot;&gt;(service response)&lt;/p&gt;" style="edgeLabel;html=1;align=center;verticalAlign=middle;resizable=0;points=[];fontSize=11;" connectable="0" vertex="1" parent="p-SeOTfBANqaArWjte3t-31">
          <mxGeometry relative="1" as="geometry">
            <mxPoint as="offset" />
          </mxGeometry>
        </mxCell>
        <mxCell id="p-SeOTfBANqaArWjte3t-33" value="" style="endArrow=classic;html=1;rounded=0;exitX=0;exitY=0;exitDx=0;exitDy=5;exitPerimeter=0;endFill=1;fontSize=11;" edge="1" parent="1">
          <mxGeometry width="50" height="50" relative="1" as="geometry">
            <mxPoint x="891" y="683" as="sourcePoint" />
            <mxPoint x="743" y="683.0000000000001" as="targetPoint" />
          </mxGeometry>
        </mxCell>
        <mxCell id="p-SeOTfBANqaArWjte3t-34" value="목표 노드 &lt;br&gt;일시 정지 요청&lt;br style=&quot;font-size: 11px&quot;&gt;(service request)" style="edgeLabel;html=1;align=center;verticalAlign=middle;resizable=0;points=[];fontSize=11;" connectable="0" vertex="1" parent="p-SeOTfBANqaArWjte3t-33">
          <mxGeometry relative="1" as="geometry">
            <mxPoint as="offset" />
          </mxGeometry>
        </mxCell>
        <mxCell id="p-SeOTfBANqaArWjte3t-35" value="" style="endArrow=open;html=1;rounded=0;exitX=0;exitY=0;exitDx=0;exitDy=5;exitPerimeter=0;endFill=0;fontSize=11;" edge="1" parent="1">
          <mxGeometry width="50" height="50" relative="1" as="geometry">
            <mxPoint x="739" y="704" as="sourcePoint" />
            <mxPoint x="260" y="704" as="targetPoint" />
          </mxGeometry>
        </mxCell>
        <mxCell id="p-SeOTfBANqaArWjte3t-36" value="행동 정지&lt;br style=&quot;font-size: 11px;&quot;&gt;(action goal)" style="edgeLabel;html=1;align=center;verticalAlign=middle;resizable=0;points=[];fontSize=11;" connectable="0" vertex="1" parent="p-SeOTfBANqaArWjte3t-35">
          <mxGeometry relative="1" as="geometry">
            <mxPoint as="offset" />
          </mxGeometry>
        </mxCell>
        <mxCell id="p-SeOTfBANqaArWjte3t-37" value="" style="endArrow=open;html=1;rounded=0;exitX=0;exitY=0;exitDx=0;exitDy=5;exitPerimeter=0;endFill=0;dashed=1;fontSize=11;" edge="1" parent="1">
          <mxGeometry width="50" height="50" relative="1" as="geometry">
            <mxPoint x="260" y="814" as="sourcePoint" />
            <mxPoint x="739" y="814" as="targetPoint" />
          </mxGeometry>
        </mxCell>
        <mxCell id="p-SeOTfBANqaArWjte3t-38" value="주행 결과 보고&lt;br style=&quot;font-size: 11px;&quot;&gt;(action result)" style="edgeLabel;html=1;align=center;verticalAlign=middle;resizable=0;points=[];fontSize=11;" connectable="0" vertex="1" parent="p-SeOTfBANqaArWjte3t-37">
          <mxGeometry relative="1" as="geometry">
            <mxPoint as="offset" />
          </mxGeometry>
        </mxCell>
        <mxCell id="p-SeOTfBANqaArWjte3t-39" value="" style="endArrow=open;html=1;rounded=0;exitX=0;exitY=0;exitDx=0;exitDy=5;exitPerimeter=0;endFill=0;dashed=1;fontSize=11;" edge="1" parent="1">
          <mxGeometry width="50" height="50" relative="1" as="geometry">
            <mxPoint x="260" y="774" as="sourcePoint" />
            <mxPoint x="739" y="774" as="targetPoint" />
          </mxGeometry>
        </mxCell>
        <mxCell id="p-SeOTfBANqaArWjte3t-40" value="주행 피드백 보고&lt;br style=&quot;font-size: 11px;&quot;&gt;(action feedback)" style="edgeLabel;html=1;align=center;verticalAlign=middle;resizable=0;points=[];fontSize=11;" connectable="0" vertex="1" parent="p-SeOTfBANqaArWjte3t-39">
          <mxGeometry relative="1" as="geometry">
            <mxPoint as="offset" />
          </mxGeometry>
        </mxCell>
        <mxCell id="p-SeOTfBANqaArWjte3t-41" value="" style="rounded=0;whiteSpace=wrap;html=1;fontSize=11;" vertex="1" parent="1">
          <mxGeometry x="892" y="670" width="20" height="187" as="geometry" />
        </mxCell>
        <mxCell id="p-SeOTfBANqaArWjte3t-61" value="" style="group" connectable="0" vertex="1" parent="1">
          <mxGeometry x="105.5" y="1354" width="807" height="241.25" as="geometry" />
        </mxCell>
        <mxCell id="p-SeOTfBANqaArWjte3t-43" value="" style="rounded=0;whiteSpace=wrap;html=1;fontSize=11;" vertex="1" parent="p-SeOTfBANqaArWjte3t-61">
          <mxGeometry x="630.5" y="161.25" width="13.5" height="30" as="geometry" />
        </mxCell>
        <mxCell id="p-SeOTfBANqaArWjte3t-44" value="" style="endArrow=classic;html=1;rounded=0;exitX=1.006;exitY=0.101;exitDx=0;exitDy=0;exitPerimeter=0;endFill=1;entryX=0.981;entryY=0.837;entryDx=0;entryDy=0;entryPerimeter=0;fontSize=11;" edge="1" parent="p-SeOTfBANqaArWjte3t-61">
          <mxGeometry width="50" height="50" relative="1" as="geometry">
            <mxPoint x="644" y="166.25" as="sourcePoint" />
            <mxPoint x="641.7435" y="186.3599999999999" as="targetPoint" />
            <Array as="points">
              <mxPoint x="681" y="166.25" />
              <mxPoint x="681.25" y="186.25" />
              <mxPoint x="669.25" y="186.25" />
            </Array>
          </mxGeometry>
        </mxCell>
        <mxCell id="p-SeOTfBANqaArWjte3t-45" value="목표 노드까지의&lt;br style=&quot;border-color: var(--border-color);&quot;&gt;도착 여부 확인" style="text;html=1;strokeColor=none;fillColor=none;align=center;verticalAlign=middle;whiteSpace=wrap;rounded=0;fontSize=11;" vertex="1" parent="p-SeOTfBANqaArWjte3t-61">
          <mxGeometry x="684.25" y="161.25" width="99.25" height="30" as="geometry" />
        </mxCell>
        <mxCell id="p-SeOTfBANqaArWjte3t-46" value="" style="endArrow=open;html=1;rounded=0;endFill=0;fontSize=11;" edge="1" parent="p-SeOTfBANqaArWjte3t-61">
          <mxGeometry width="50" height="50" relative="1" as="geometry">
            <mxPoint x="152.5" y="52.25" as="sourcePoint" />
            <mxPoint y="52.83333333333394" as="targetPoint" />
          </mxGeometry>
        </mxCell>
        <mxCell id="p-SeOTfBANqaArWjte3t-47" value="회전 속도값 발행" style="edgeLabel;html=1;align=center;verticalAlign=middle;resizable=0;points=[];fontSize=11;" connectable="0" vertex="1" parent="p-SeOTfBANqaArWjte3t-46">
          <mxGeometry relative="1" as="geometry">
            <mxPoint as="offset" />
          </mxGeometry>
        </mxCell>
        <mxCell id="p-SeOTfBANqaArWjte3t-48" value="" style="endArrow=open;html=1;rounded=0;endFill=0;fontSize=11;" edge="1" parent="p-SeOTfBANqaArWjte3t-61">
          <mxGeometry width="50" height="50" relative="1" as="geometry">
            <mxPoint x="152.5" y="79.92000000000053" as="sourcePoint" />
            <mxPoint x="1" y="79.50333333333401" as="targetPoint" />
          </mxGeometry>
        </mxCell>
        <mxCell id="p-SeOTfBANqaArWjte3t-49" value="직진 속도값 발행" style="edgeLabel;html=1;align=center;verticalAlign=middle;resizable=0;points=[];fontSize=11;" connectable="0" vertex="1" parent="p-SeOTfBANqaArWjte3t-48">
          <mxGeometry relative="1" as="geometry">
            <mxPoint as="offset" />
          </mxGeometry>
        </mxCell>
        <mxCell id="p-SeOTfBANqaArWjte3t-50" value="" style="endArrow=open;html=1;rounded=0;endFill=0;dashed=1;fontSize=11;" edge="1" parent="p-SeOTfBANqaArWjte3t-61">
          <mxGeometry width="50" height="50" relative="1" as="geometry">
            <mxPoint x="637" y="222.2521985815606" as="sourcePoint" />
            <mxPoint x="787" y="222.66886524822712" as="targetPoint" />
          </mxGeometry>
        </mxCell>
        <mxCell id="p-SeOTfBANqaArWjte3t-51" value="&lt;p style=&quot;margin-top: 0pt; margin-bottom: 0pt; margin-left: 0in; direction: ltr; unicode-bidi: embed; font-size: 11px;&quot;&gt;작업 결과 보고&lt;/p&gt;&lt;p style=&quot;margin-top: 0pt; margin-bottom: 0pt; margin-left: 0in; direction: ltr; unicode-bidi: embed; font-size: 11px;&quot;&gt;(service response)&lt;/p&gt;" style="edgeLabel;html=1;align=center;verticalAlign=middle;resizable=0;points=[];fontSize=11;" connectable="0" vertex="1" parent="p-SeOTfBANqaArWjte3t-50">
          <mxGeometry relative="1" as="geometry">
            <mxPoint as="offset" />
          </mxGeometry>
        </mxCell>
        <mxCell id="p-SeOTfBANqaArWjte3t-52" value="" style="endArrow=open;html=1;rounded=0;exitX=0;exitY=0;exitDx=0;exitDy=5;exitPerimeter=0;endFill=0;fontSize=11;" edge="1" parent="p-SeOTfBANqaArWjte3t-61">
          <mxGeometry width="50" height="50" relative="1" as="geometry">
            <mxPoint x="786" y="8.5" as="sourcePoint" />
            <mxPoint x="638" y="8.500000000000114" as="targetPoint" />
          </mxGeometry>
        </mxCell>
        <mxCell id="p-SeOTfBANqaArWjte3t-53" value="전진/회전 작업 요청&lt;br style=&quot;font-size: 11px;&quot;&gt;(service request)" style="edgeLabel;html=1;align=center;verticalAlign=middle;resizable=0;points=[];fontSize=11;" connectable="0" vertex="1" parent="p-SeOTfBANqaArWjte3t-52">
          <mxGeometry relative="1" as="geometry">
            <mxPoint as="offset" />
          </mxGeometry>
        </mxCell>
        <mxCell id="p-SeOTfBANqaArWjte3t-54" value="" style="endArrow=open;html=1;rounded=0;exitX=0;exitY=0;exitDx=0;exitDy=5;exitPerimeter=0;endFill=0;fontSize=11;" edge="1" parent="p-SeOTfBANqaArWjte3t-61">
          <mxGeometry width="50" height="50" relative="1" as="geometry">
            <mxPoint x="633.5" y="29.5" as="sourcePoint" />
            <mxPoint x="154.5" y="29.5" as="targetPoint" />
          </mxGeometry>
        </mxCell>
        <mxCell id="p-SeOTfBANqaArWjte3t-55" value="&lt;font style=&quot;font-size: 11px;&quot;&gt;전진/회전 행동&lt;br style=&quot;border-color: var(--border-color); font-size: 11px;&quot;&gt;(action goal)&lt;/font&gt;" style="edgeLabel;html=1;align=center;verticalAlign=middle;resizable=0;points=[];fontSize=11;" connectable="0" vertex="1" parent="p-SeOTfBANqaArWjte3t-54">
          <mxGeometry relative="1" as="geometry">
            <mxPoint as="offset" />
          </mxGeometry>
        </mxCell>
        <mxCell id="p-SeOTfBANqaArWjte3t-56" value="" style="endArrow=open;html=1;rounded=0;exitX=0;exitY=0;exitDx=0;exitDy=5;exitPerimeter=0;endFill=0;dashed=1;fontSize=11;" edge="1" parent="p-SeOTfBANqaArWjte3t-61">
          <mxGeometry width="50" height="50" relative="1" as="geometry">
            <mxPoint x="154.5" y="139.5" as="sourcePoint" />
            <mxPoint x="633.5" y="139.5" as="targetPoint" />
          </mxGeometry>
        </mxCell>
        <mxCell id="p-SeOTfBANqaArWjte3t-57" value="주행 결과 보고&lt;br style=&quot;font-size: 11px;&quot;&gt;(action result)" style="edgeLabel;html=1;align=center;verticalAlign=middle;resizable=0;points=[];fontSize=11;" connectable="0" vertex="1" parent="p-SeOTfBANqaArWjte3t-56">
          <mxGeometry relative="1" as="geometry">
            <mxPoint as="offset" />
          </mxGeometry>
        </mxCell>
        <mxCell id="p-SeOTfBANqaArWjte3t-58" value="" style="endArrow=open;html=1;rounded=0;exitX=0;exitY=0;exitDx=0;exitDy=5;exitPerimeter=0;endFill=0;dashed=1;fontSize=11;" edge="1" parent="p-SeOTfBANqaArWjte3t-61">
          <mxGeometry width="50" height="50" relative="1" as="geometry">
            <mxPoint x="154.5" y="99.5" as="sourcePoint" />
            <mxPoint x="633.5" y="99.5" as="targetPoint" />
          </mxGeometry>
        </mxCell>
        <mxCell id="p-SeOTfBANqaArWjte3t-59" value="주행 피드백 보고&lt;br style=&quot;font-size: 11px;&quot;&gt;(action feedback)" style="edgeLabel;html=1;align=center;verticalAlign=middle;resizable=0;points=[];fontSize=11;" connectable="0" vertex="1" parent="p-SeOTfBANqaArWjte3t-58">
          <mxGeometry relative="1" as="geometry">
            <mxPoint as="offset" />
          </mxGeometry>
        </mxCell>
        <mxCell id="p-SeOTfBANqaArWjte3t-60" value="" style="rounded=0;whiteSpace=wrap;html=1;fontSize=11;" vertex="1" parent="p-SeOTfBANqaArWjte3t-61">
          <mxGeometry x="787" width="20" height="241.25" as="geometry" />
        </mxCell>
        <mxCell id="_phgmdVUzbOF5s8IBjNN-1" value="&lt;span style=&quot;font-size: 18px;&quot;&gt;AE&lt;/span&gt;" style="rounded=0;whiteSpace=wrap;html=1;" vertex="1" parent="1">
          <mxGeometry x="200" y="80" width="120" height="60" as="geometry" />
        </mxCell>
        <mxCell id="9IHYXprfsncOe0eh_rMX-1" value="" style="rounded=0;whiteSpace=wrap;html=1;fontSize=11;" vertex="1" parent="1">
          <mxGeometry x="410" y="1041" width="20" height="90" as="geometry" />
        </mxCell>
        <mxCell id="9IHYXprfsncOe0eh_rMX-2" value="" style="endArrow=classic;html=1;rounded=0;exitX=0;exitY=0;exitDx=0;exitDy=5;exitPerimeter=0;endFill=1;fontSize=11;" edge="1" parent="1">
          <mxGeometry width="50" height="50" relative="1" as="geometry">
            <mxPoint x="430" y="1061" as="sourcePoint" />
            <mxPoint x="578" y="1061" as="targetPoint" />
          </mxGeometry>
        </mxCell>
        <mxCell id="9IHYXprfsncOe0eh_rMX-3" value="침입자의 위치(x,y)에 대한 &lt;br&gt;논리적 포즈값 요청&lt;br style=&quot;font-size: 11px&quot;&gt;(service request)" style="edgeLabel;html=1;align=center;verticalAlign=middle;resizable=0;points=[];fontSize=11;" connectable="0" vertex="1" parent="9IHYXprfsncOe0eh_rMX-2">
          <mxGeometry relative="1" as="geometry">
            <mxPoint as="offset" />
          </mxGeometry>
        </mxCell>
        <mxCell id="9IHYXprfsncOe0eh_rMX-4" value="" style="endArrow=open;html=1;rounded=0;endFill=0;dashed=1;fontSize=11;" edge="1" parent="1">
          <mxGeometry width="50" height="50" relative="1" as="geometry">
            <mxPoint x="579" y="1111.4188652482271" as="sourcePoint" />
            <mxPoint x="429" y="1111.0021985815606" as="targetPoint" />
          </mxGeometry>
        </mxCell>
        <mxCell id="9IHYXprfsncOe0eh_rMX-5" value="&lt;p style=&quot;margin-top: 0pt; margin-bottom: 0pt; margin-left: 0in; direction: ltr; unicode-bidi: embed; font-size: 11px;&quot;&gt;영역, 노드 전달&lt;/p&gt;&lt;p style=&quot;margin-top: 0pt; margin-bottom: 0pt; margin-left: 0in; direction: ltr; unicode-bidi: embed; font-size: 11px;&quot;&gt;(service response)&lt;/p&gt;" style="edgeLabel;html=1;align=center;verticalAlign=middle;resizable=0;points=[];fontSize=11;" connectable="0" vertex="1" parent="9IHYXprfsncOe0eh_rMX-4">
          <mxGeometry relative="1" as="geometry">
            <mxPoint as="offset" />
          </mxGeometry>
        </mxCell>
      </root>
    </mxGraphModel>
  </diagram>
</mxfile>
